<svg width="21" height="11" viewBox="0 0 21 11" fill="none" xmlns="http://www.w3.org/2000/svg">
<path d="M0 5.45777C0 5.2845 0.0666667 5.14373 0.2 5.03544C0.333333 4.92715 0.506667 4.87301 0.72 4.87301H18.4L13.68 1.03958C13.52 0.909631 13.44 0.758026 13.44 0.584764C13.44 0.411502 13.52 0.270726 13.68 0.162437C13.84 0.0541487 14.0267 3.8147e-06 14.24 3.8147e-06C14.4533 3.8147e-06 14.64 0.0433197 14.8 0.129951L20.8 5.00295C20.9067 5.1329 20.96 5.2845 20.96 5.45777C20.96 5.63103 20.9067 5.78263 20.8 5.91258L14.8 10.7856C14.64 10.8722 14.4533 10.9155 14.24 10.9155C14.0267 10.9155 13.84 10.8614 13.68 10.7531C13.52 10.6448 13.44 10.504 13.44 10.3308C13.44 10.1575 13.52 10.0059 13.68 9.87595L18.4 6.04253H0.72C0.506667 6.04253 0.333333 5.98838 0.2 5.88009C0.0666667 5.7718 0 5.63103 0 5.45777Z" fill="white"/>
</svg>
