<svg width="356" height="74" viewBox="0 0 356 74" fill="none" xmlns="http://www.w3.org/2000/svg">
<path d="M1 70.9452C75.2362 57.3715 215.134 51.573 289.224 54.9335C320.076 56.3831 353.42 62.7087 353.201 71.8677" stroke="#09AFF4" stroke-width="5.07464"/>
<path d="M32.944 26.248H42.744L55.008 44H43.92L32.944 26.248ZM23.144 4.8H32.608V44H23.144V4.8ZM29.08 12.808V4.8H37.424C40.784 4.8 43.584 5.34133 45.824 6.424C48.064 7.50667 49.7627 9.01867 50.92 10.96C52.0773 12.864 52.656 15.0853 52.656 17.624C52.656 20.1253 52.0773 22.3467 50.92 24.288C49.7627 26.192 48.064 27.6853 45.824 28.768C43.584 29.8507 40.784 30.392 37.424 30.392H29.08V23.056H36.752C38.0213 23.056 39.104 22.8693 40 22.496C40.9333 22.0853 41.6427 21.5067 42.128 20.76C42.6133 19.976 42.856 19.0427 42.856 17.96C42.856 16.8773 42.6133 15.9627 42.128 15.216C41.6427 14.432 40.9333 13.8347 40 13.424C39.104 13.0133 38.0213 12.808 36.752 12.808H29.08ZM71.6658 44.56C68.6791 44.56 66.0845 44.0187 63.8818 42.936C61.7165 41.816 60.0365 40.248 58.8418 38.232C57.6471 36.216 57.0498 33.8453 57.0498 31.12C57.0498 28.3573 57.6285 25.968 58.7858 23.952C59.9431 21.936 61.6045 20.3867 63.7698 19.304C65.9725 18.2213 68.5671 17.68 71.5538 17.68C74.5405 17.68 77.0605 18.2027 79.1138 19.248C81.1671 20.256 82.7351 21.7307 83.8178 23.672C84.9005 25.6133 85.4418 27.9653 85.4418 30.728C85.4418 31.1387 85.4418 31.5493 85.4418 31.96C85.4418 32.3333 85.4045 32.6507 85.3298 32.912H61.8098V28.208H77.7138L75.6978 30.784C75.8845 30.5227 76.0338 30.2053 76.1458 29.832C76.2951 29.4213 76.3698 29.0853 76.3698 28.824C76.3698 27.704 76.1645 26.7333 75.7538 25.912C75.3431 25.0907 74.7645 24.456 74.0178 24.008C73.2711 23.56 72.3938 23.336 71.3858 23.336C70.1165 23.336 69.0525 23.616 68.1938 24.176C67.3351 24.736 66.6818 25.5947 66.2338 26.752C65.8231 27.872 65.5991 29.2907 65.5618 31.008C65.5618 32.576 65.7858 33.92 66.2338 35.04C66.6818 36.16 67.3538 37.0187 68.2498 37.616C69.1458 38.176 70.2471 38.456 71.5538 38.456C73.0471 38.456 74.3165 38.176 75.3618 37.616C76.4445 37.056 77.3031 36.216 77.9378 35.096L85.4978 36.944C84.1538 39.4827 82.3245 41.3867 80.0098 42.656C77.7325 43.9253 74.9511 44.56 71.6658 44.56ZM86.3711 18.24H95.3871L101.323 32.52L107.203 18.24H116.219L101.323 47.024L86.3711 18.24ZM117.042 31.12C117.042 28.3947 117.677 26.024 118.946 24.008C120.215 21.992 121.97 20.424 124.21 19.304C126.45 18.184 128.97 17.624 131.77 17.624C134.57 17.624 137.071 18.184 139.274 19.304C141.514 20.424 143.269 21.992 144.538 24.008C145.845 26.024 146.498 28.3947 146.498 31.12C146.498 33.808 145.845 36.16 144.538 38.176C143.269 40.192 141.514 41.76 139.274 42.88C137.071 44 134.57 44.56 131.77 44.56C128.97 44.56 126.45 44 124.21 42.88C121.97 41.76 120.215 40.192 118.946 38.176C117.677 36.16 117.042 33.808 117.042 31.12ZM125.722 31.12C125.722 32.464 126.002 33.6213 126.562 34.592C127.122 35.5253 127.85 36.2533 128.746 36.776C129.642 37.2987 130.65 37.56 131.77 37.56C132.853 37.56 133.842 37.2987 134.738 36.776C135.671 36.2533 136.399 35.5253 136.922 34.592C137.482 33.6213 137.762 32.464 137.762 31.12C137.762 29.776 137.482 28.6187 136.922 27.648C136.399 26.6773 135.671 25.9307 134.738 25.408C133.842 24.8853 132.853 24.624 131.77 24.624C130.65 24.624 129.642 24.8853 128.746 25.408C127.85 25.9307 127.122 26.6773 126.562 27.648C126.002 28.6187 125.722 29.776 125.722 31.12ZM151.585 0.319998H160.097V44H151.585V0.319998ZM175.527 33.92C175.527 35.4133 175.807 36.5893 176.367 37.448C176.927 38.2693 177.898 38.68 179.279 38.68C180.212 38.68 180.996 38.4933 181.631 38.12C182.303 37.7467 182.826 37.2053 183.199 36.496C183.572 35.7867 183.759 34.928 183.759 33.92V18.24H192.215V44H183.759V40.136C182.975 41.5173 181.948 42.6187 180.679 43.44C179.41 44.224 177.823 44.616 175.919 44.616C172.708 44.616 170.356 43.7573 168.863 42.04C167.407 40.2853 166.679 37.8773 166.679 34.816V18.24H175.527V33.92ZM206.002 31.12C206.002 32.5013 206.301 33.696 206.898 34.704C207.495 35.6747 208.317 36.44 209.362 37C210.445 37.56 211.602 37.84 212.834 37.84C213.879 37.84 214.869 37.6907 215.802 37.392C216.773 37.056 217.65 36.608 218.434 36.048C219.255 35.488 219.927 34.7973 220.45 33.976V42.208C219.554 42.9173 218.434 43.496 217.09 43.944C215.746 44.3547 214.103 44.56 212.162 44.56C209.325 44.56 206.767 44 204.49 42.88C202.25 41.76 200.477 40.192 199.17 38.176C197.901 36.16 197.266 33.808 197.266 31.12C197.266 28.3947 197.901 26.0427 199.17 24.064C200.477 22.048 202.25 20.48 204.49 19.36C206.767 18.24 209.325 17.68 212.162 17.68C214.103 17.68 215.746 17.904 217.09 18.352C218.434 18.7627 219.554 19.2853 220.45 19.92V28.208C219.927 27.3867 219.237 26.696 218.378 26.136C217.557 25.576 216.661 25.1467 215.69 24.848C214.719 24.5493 213.767 24.4 212.834 24.4C211.602 24.4 210.445 24.6987 209.362 25.296C208.317 25.8933 207.495 26.696 206.898 27.704C206.301 28.712 206.002 29.8507 206.002 31.12ZM226.058 8.552C226.058 7.208 226.543 6.12533 227.514 5.304C228.484 4.44533 229.642 4.016 230.986 4.016C232.367 4.016 233.524 4.44533 234.458 5.304C235.428 6.12533 235.914 7.208 235.914 8.552C235.914 9.896 235.428 10.9973 234.458 11.856C233.524 12.7147 232.367 13.144 230.986 13.144C229.642 13.144 228.484 12.7147 227.514 11.856C226.543 10.9973 226.058 9.896 226.058 8.552ZM226.898 18.24H235.074V44H226.898V18.24ZM240.526 31.12C240.526 28.3947 241.161 26.024 242.43 24.008C243.7 21.992 245.454 20.424 247.694 19.304C249.934 18.184 252.454 17.624 255.254 17.624C258.054 17.624 260.556 18.184 262.758 19.304C264.998 20.424 266.753 21.992 268.022 24.008C269.329 26.024 269.982 28.3947 269.982 31.12C269.982 33.808 269.329 36.16 268.022 38.176C266.753 40.192 264.998 41.76 262.758 42.88C260.556 44 258.054 44.56 255.254 44.56C252.454 44.56 249.934 44 247.694 42.88C245.454 41.76 243.7 40.192 242.43 38.176C241.161 36.16 240.526 33.808 240.526 31.12ZM249.206 31.12C249.206 32.464 249.486 33.6213 250.046 34.592C250.606 35.5253 251.334 36.2533 252.23 36.776C253.126 37.2987 254.134 37.56 255.254 37.56C256.337 37.56 257.326 37.2987 258.222 36.776C259.156 36.2533 259.884 35.5253 260.406 34.592C260.966 33.6213 261.246 32.464 261.246 31.12C261.246 29.776 260.966 28.6187 260.406 27.648C259.884 26.6773 259.156 25.9307 258.222 25.408C257.326 24.8853 256.337 24.624 255.254 24.624C254.134 24.624 253.126 24.8853 252.23 25.408C251.334 25.9307 250.606 26.6773 250.046 27.648C249.486 28.6187 249.206 29.776 249.206 31.12ZM291.814 28.32C291.814 26.7893 291.515 25.6133 290.918 24.792C290.358 23.9707 289.406 23.56 288.062 23.56C287.166 23.56 286.382 23.7467 285.71 24.12C285.038 24.4933 284.515 25.0347 284.142 25.744C283.768 26.4533 283.582 27.312 283.582 28.32V44H275.07V18.24H283.582V22.104C284.328 20.6853 285.336 19.584 286.606 18.8C287.912 18.016 289.518 17.624 291.422 17.624C294.632 17.624 296.966 18.4827 298.422 20.2C299.878 21.9173 300.606 24.3253 300.606 27.424V44H291.814V28.32ZM320.385 44.56C317.398 44.56 314.803 44.0187 312.601 42.936C310.435 41.816 308.755 40.248 307.561 38.232C306.366 36.216 305.769 33.8453 305.769 31.12C305.769 28.3573 306.347 25.968 307.505 23.952C308.662 21.936 310.323 20.3867 312.489 19.304C314.691 18.2213 317.286 17.68 320.273 17.68C323.259 17.68 325.779 18.2027 327.833 19.248C329.886 20.256 331.454 21.7307 332.537 23.672C333.619 25.6133 334.161 27.9653 334.161 30.728C334.161 31.1387 334.161 31.5493 334.161 31.96C334.161 32.3333 334.123 32.6507 334.049 32.912H310.529V28.208H326.433L324.417 30.784C324.603 30.5227 324.753 30.2053 324.865 29.832C325.014 29.4213 325.089 29.0853 325.089 28.824C325.089 27.704 324.883 26.7333 324.473 25.912C324.062 25.0907 323.483 24.456 322.737 24.008C321.99 23.56 321.113 23.336 320.105 23.336C318.835 23.336 317.771 23.616 316.913 24.176C316.054 24.736 315.401 25.5947 314.953 26.752C314.542 27.872 314.318 29.2907 314.281 31.008C314.281 32.576 314.505 33.92 314.953 35.04C315.401 36.16 316.073 37.0187 316.969 37.616C317.865 38.176 318.966 38.456 320.273 38.456C321.766 38.456 323.035 38.176 324.081 37.616C325.163 37.056 326.022 36.216 326.657 35.096L334.217 36.944C332.873 39.4827 331.043 41.3867 328.729 42.656C326.451 43.9253 323.67 44.56 320.385 44.56Z" fill="#09AFF4"/>
</svg>
